PathFileType	4	(X/Y/Z)	s04c0101.trc
DataRate	CameraRate	NumFrames	NumMarkers	Units	OrigDataRate	OrigDataStartFrame	OrigNumFrames
200	200	4	51	mm	200	500	2000
Frame#	Time	racr			lacr			c7			jug			rlel			rdr			llel			ldr			s2			lic			ric			lasi			rasi			rpsi			lpsi			rgt			lgt			rth1			rth2			rth3			rth4			rlfc			rmfc			rsh1			rsh2			rsh3			rsh4			rlmal			rmmal			rcal			rtoe			rmt5			lth1			lth2			lth4			lth3			llfc			lmfc			lsh1			lsh2			lsh3			lsh4			llmal			lmmal			lcal			ltoe			lmt1			lmt5			SBIKE			LBIKE			RBIKE			
		X1	Y1	Z1	X2	Y2	Z2	X3	Y3	Z3	X4	Y4	Z4	X5	Y5	Z5	X6	Y6	Z6	X7	Y7	Z7	X8	Y8	Z8	X9	Y9	Z9	X10	Y10	Z10	X11	Y11	Z11	X12	Y12	Z12	X13	Y13	Z13	X14	Y14	Z14	X15	Y15	Z15	X16	Y16	Z16	X17	Y17	Z17	X18	Y18	Z18	X19	Y19	Z19	X20	Y20	Z20	X21	Y21	Z21	X22	Y22	Z22	X23	Y23	Z23	X24	Y24	Z24	X25	Y25	Z25	X26	Y26	Z26	X27	Y27	Z27	X28	Y28	Z28	X29	Y29	Z29	X30	Y30	Z30	X31	Y31	Z31	X32	Y32	Z32	X33	Y33	Z33	X34	Y34	Z34	X35	Y35	Z35	X36	Y36	Z36	X37	Y37	Z37	X38	Y38	Z38	X39	Y39	Z39	X40	Y40	Z40	X41	Y41	Z41	X42	Y42	Z42	X43	Y43	Z43	X44	Y44	Z44	X45	Y45	Z45	X46	Y46	Z46	X47	Y47	Z47	X48	Y48	Z48	X49	Y49	Z49	X50	Y50	Z50	X51	Y51	Z51	
500	2.5000	478.890538	1429.184460	-189.188294	496.600026	1411.539143	-434.114363	454.808243	1471.437608	-318.596362	447.422096	1319.560251	-314.286223	494.729391	1136.960373	-40.117771	687.330139	919.855822	-116.717462	521.749134	1141.105574	-574.083545	691.191280	907.583366	-485.414018	-84.520370	1187.679179	-309.825969	76.951659	1192.522506	-471.809898	62.144921	1235.304439	-152.013121	0.000000	0.000000	-0.000000	100.099746	1191.762001	-163.843341	-64.768947	1242.201417	-275.311886	-59.223076	1232.418111	-349.835459	23.494944	1188.614764	-123.225325	22.298134	1088.725639	-476.421229	160.796955	1120.768914	-109.355106	248.315176	1105.796427	-114.307863	316.018322	1054.372398	-110.725663	259.649311	1133.904995	-138.025493	433.588557	972.469678	-131.036137	421.531129	949.022496	-246.627455	355.701430	878.723244	-109.084471	320.318246	797.295896	-122.406847	248.044268	750.666630	-129.655017	347.290039	780.017855	-144.381195	165.875544	620.213897	-137.676420	189.994295	621.000085	-220.505993	91.367407	613.370486	-178.710231	368.852049	493.551963	-163.300899	296.714587	497.084533	-109.467914	59.655846	1005.116184	-487.526623	119.291071	942.845642	-495.584215	151.218464	960.314257	-491.571211	141.089669	856.352975	-496.217818	204.351781	701.155276	-483.583011	244.501260	678.939828	-373.883599	190.889719	571.861173	-500.583681	197.864668	487.996794	-477.741359	160.802620	407.574889	-470.721438	228.519479	487.115690	-453.150429	133.653894	262.125938	-456.831773	132.385403	264.808750	-370.443130	58.266268	264.996878	-413.213290	337.583382	144.883909	-412.747209	262.501113	151.532873	-365.063171	258.939583	135.068892	-474.316378	-187.381396	937.835270	-285.568488	-18.166451	79.444849	-484.675402	-17.950497	79.346161	-83.994033	
501	2.5050	478.286128	1428.199720	-188.689913	495.367646	1410.368741	-433.461386	454.128894	1470.335481	-318.203383	446.448733	1318.259105	-313.416322	492.678437	1135.709419	-39.436520	686.734441	920.174149	-116.438958	520.556610	1140.208148	-573.727594	690.911484	907.354680	-485.200177	-85.673431	1187.170113	-309.656257	76.345471	1191.569516	-471.500848	60.600383	1235.098021	-151.804529	0.000000	0.000000	-0.000000	98.463586	1191.539451	-163.400577	-66.160657	1241.931240	-275.060788	-60.128152	1231.957454	-349.479376	22.007404	1188.619174	-122.943332	21.804792	1088.070829	-476.441169	159.109998	1120.035704	-109.622051	246.595410	1105.302925	-114.858516	314.426345	1053.894614	-111.803915	257.903010	1133.714803	-138.134689	432.426767	973.079169	-132.613213	420.360931	950.125045	-248.334699	356.189238	878.145069	-110.315906	322.100024	796.162201	-123.070339	250.515888	748.328617	-130.058235	349.244182	779.245591	-145.231837	170.194243	616.553582	-137.384652	193.812006	617.537097	-220.418106	95.563699	607.418097	-177.867284	375.939385	496.099930	-163.471248	304.240175	497.014152	-109.210283	60.137999	1005.102248	-487.981113	120.546451	943.457187	-495.078772	152.156921	961.132902	-490.141099	143.139463	857.301038	-497.023924	206.778859	702.424995	-484.461557	246.414672	679.384051	-375.364335	190.773873	573.334687	-501.851963	195.898703	489.403594	-478.665534	157.161975	409.833386	-471.549575	226.474462	487.998809	-454.099409	127.225344	264.473637	-457.612400	126.388466	267.292531	-370.641274	51.614637	268.433794	-413.734554	329.430679	144.555418	-412.819718	254.428967	152.243768	-365.247511	250.647606	135.703872	-474.332125	-187.452474	937.815212	-285.670993	-18.173937	79.466582	-484.654106	-18.122278	79.497675	-83.866511	
502	2.5100	477.538962	1427.333094	-188.050198	494.121359	1409.120561	-432.864181	453.303864	1469.286490	-317.644646	445.426512	1317.283095	-312.559778	490.575607	1134.403242	-38.831261	686.041396	920.566461	-116.200526	519.159331	1139.207451	-573.371566	690.690843	907.184491	-485.165643	-86.904445	1186.517825	-309.461853	75.859455	1190.525973	-471.181028	59.094826	1234.757133	-151.501480	0.000000	0.000000	-0.000000	97.008129	1191.332115	-162.961066	-67.552769	1241.475264	-274.855632	-61.347870	1231.434783	-349.168729	20.543210	1188.226632	-122.759451	21.353157	1087.267628	-476.466722	157.384130	1118.806347	-109.820400	244.911394	1104.111348	-115.460148	312.735020	1052.838923	-112.920435	256.123296	1132.837985	-138.278722	431.159956	972.837048	-134.193884	418.967080	949.935634	-250.043990	355.768889	876.511698	-111.313312	323.544894	794.315781	-123.766913	252.555470	745.096027	-130.487530	350.623808	777.285307	-146.528888	174.240107	611.966772	-137.005437	197.473512	613.200974	-220.237108	99.419333	600.583628	-176.915661	382.552394	498.732773	-163.695533	311.499886	496.650268	-108.577726	60.875044	1005.063571	-488.613987	122.208994	944.197708	-494.767599	153.370339	962.123212	-488.785422	145.865775	858.409181	-498.025936	209.734518	703.824352	-485.149833	249.054148	679.910681	-376.214706	191.304075	574.939459	-502.959238	194.479843	491.107273	-479.410377	154.050390	412.270109	-472.384223	224.901720	489.002506	-454.756044	121.045686	267.336793	-458.375992	120.609019	270.269692	-371.228797	44.915026	272.321446	-414.564589	321.413086	144.513436	-412.647926	246.282112	153.231738	-365.332951	242.576506	136.635987	-474.303730	-187.491627	937.802667	-285.641698	-18.162574	79.482080	-484.654520	-18.130895	79.493063	-83.863384	
503	2.5150	476.540893	1426.471263	-187.616357	492.800452	1407.753302	-432.298672	452.424600	1468.176065	-317.332975	444.305361	1316.035597	-311.685462	488.305901	1132.986949	-38.317303	685.315767	921.045891	-116.028434	517.476582	1138.060799	-573.084987	690.506152	907.155074	-485.296842	-88.092043	1185.583539	-309.304806	75.323204	1189.398475	-470.804680	57.565547	1234.281608	-151.179843	0.000000	0.000000	-0.000000	95.639295	1191.096027	-162.535476	-68.929385	1240.772414	-274.771772	-62.582593	1230.637595	-348.938283	19.115295	1187.521247	-122.619137	21.096187	1086.416424	-476.603210	155.633792	1116.946677	-110.150385	243.210574	1102.267521	-116.118222	310.984394	1051.000298	-114.143739	254.397468	1131.358132	-138.468590	429.759603	971.612172	-135.726821	417.341400	948.546964	-251.688392	355.556014	874.092282	-112.707353	324.567747	791.300018	-124.569977	254.415865	740.954442	-130.871391	351.833970	774.439181	-147.226244	178.059521	606.462978	-136.598426	200.900487	608.248904	-219.814446	103.060021	592.584521	-175.793769	388.924345	501.983744	-163.716334	318.468606	495.941473	-107.922600	61.882710	1005.158262	-489.803595	124.154782	944.971205	-494.645378	154.895232	963.169206	-487.555087	149.019529	859.427317	-498.532767	213.192170	705.253359	-485.617176	251.970058	680.507161	-376.700646	192.387068	576.903696	-503.711036	193.584492	492.995830	-479.844820	151.435363	415.168518	-473.083968	223.602694	490.511731	-454.950167	115.230585	270.522631	-459.181169	115.415832	273.184242	-370.977452	38.793017	276.539895	-415.280044	313.499786	144.735311	-412.292530	238.425314	154.595053	-365.349660	234.764657	137.942007	-474.159533	-187.544927	937.766871	-285.625790	-18.165117	79.474741	-484.647081	-18.129397	79.480670	-83.856795	
